<?xml version="1.0" encoding="utf-8"?>
<!-- Generator: Adobe Illustrator 16.0.0, SVG Export Plug-In . SVG Version: 6.00 Build 0)  -->
<!DOCTYPE svg PUBLIC "-//W3C//DTD SVG 1.1//EN" "http://www.w3.org/Graphics/SVG/1.1/DTD/svg11.dtd">
<svg version="1.1" id="Layer_1" xmlns="http://www.w3.org/2000/svg" xmlns:xlink="http://www.w3.org/1999/xlink" x="0px" y="0px"
	 width="100px" height="100px" viewBox="0 0 100 100" enable-background="new 0 0 100 100" xml:space="preserve">
<g>
	<path d="M22.188,45h0.002L53.5,44.977l1.491,0.034c0.494,0,0.988-0.011,1.478-0.052c4.017-0.331,7.182-3.586,7.524-7.738
		c0.33-3.967-2.56-7.76-6.579-8.633c-0.562-0.122-1.137-0.185-1.704-0.185c-4.492,0-8.207,3.721-8.282,8.293
		c-0.005,0.334,0.107,0.627,0.325,0.849c0.223,0.227,0.544,0.356,0.883,0.356c0,0,0,0,0,0c0.691,0,1.22-0.511,1.232-1.188
		c0.053-3.221,2.704-5.842,5.909-5.842c0.491,0,0.986,0.061,1.472,0.184c1.682,0.423,3.056,1.607,3.77,3.248
		c0.747,1.717,0.667,3.697-0.216,5.299c-1.03,1.873-3.059,2.946-5.563,2.95L22.19,42.596c-0.682,0.001-1.196,0.515-1.196,1.21
		C20.995,44.5,21.508,45,22.188,45z"/>
	<path d="M63.133,56.636l-34.95-0.04c-0.681,0-1.194,0.523-1.195,1.218c0,0.696,0.514,1.221,1.196,1.222l34.972,0.041
		c1.41,0.002,2.715,0.624,3.58,1.706c0.847,1.061,1.158,2.439,0.855,3.782c-0.517,2.288-2.533,3.312-4.304,3.312
		c-1.494,0-2.828-0.677-3.659-1.858c-0.488-0.694-0.757-1.565-0.775-2.519c-0.014-0.677-0.544-1.187-1.234-1.187
		c-0.339,0-0.661,0.13-0.883,0.356c-0.218,0.222-0.33,0.516-0.323,0.85c0.077,3.782,3.156,6.858,6.865,6.858
		c0.318,0,0.642-0.023,0.961-0.068c1.926-0.274,3.649-1.37,4.729-3.005c1.107-1.677,1.444-3.75,0.925-5.689
		C69.109,58.687,66.329,56.639,63.133,56.636z"/>
	<path d="M47.152,63.418c-0.838-0.072-1.483-0.059-2.331-0.045C44.484,63.379,44,63.384,44,63.384v-0.002l-22.416-0.029
		c-0.812,0-1.584,0.621-1.584,1.212c0,0.003,0,0.006,0,0.01c0,0.007,0.127,0.127,0.127,0.133C20.141,65.291,20.701,66,21.5,66
		h24.373c0.375,0,0.888-0.166,1.227-0.096c1.419,0.289,2.443,1.576,2.235,3.006C49.135,70.283,47.932,71,46.377,71
		c-0.001,0-0.002,0-0.003,0c-1.536,0-2.528-1.275-2.566-2.598c-0.02-0.672-0.548-0.959-1.23-0.959c-0.335,0-0.652,0.129-0.872,0.354
		c-0.217,0.224-0.326,0.52-0.317,0.855c0.094,3.24,2.768,5.177,5.299,5.177c1.271,0,2.472-0.449,3.473-1.299
		c1.541-1.307,2.098-3.376,1.452-5.4C50.951,65.053,49.2,63.596,47.152,63.418z"/>
	<path d="M79.033,40.199c-1.899-1.553-4.599-1.881-6.979-0.874c-2.273,0.961-3.839,3.396-3.896,6.061
		c-0.007,0.334,0.104,0.628,0.322,0.85c0.222,0.227,0.543,0.356,0.882,0.357c0.001,0,0.001,0,0.001,0
		c0.689,0,1.221-0.511,1.235-1.187c0.038-1.809,1.136-3.381,2.797-4.005c1.616-0.604,3.513-0.073,4.724,1.294
		c1.053,1.188,1.274,2.797,0.594,4.312c-0.715,1.592-2.241,2.614-3.887,2.616l-44.454,0.024c-0.683,0.001-1.197,0.496-1.196,1.192
		c0,0.694,0.514,1.159,1.195,1.159h0.002l42.967,0.021l0.752,0.061c0.656,0,1.42-0.013,2.19-0.161
		c2.352-0.455,4.321-2.346,5.02-4.818C81.995,44.648,81.084,41.874,79.033,40.199z"/>
</g>
</svg>
